<?xml version="1.0" standalone="no"?>
<!DOCTYPE svg PUBLIC "-//W3C//DTD SVG 20010904//EN"
 "http://www.w3.org/TR/2001/REC-SVG-20010904/DTD/svg10.dtd">
<svg version="1.0" xmlns="http://www.w3.org/2000/svg"
 width="514.000000pt" height="213.000000pt" viewBox="0 0 514.000000 213.000000"
 preserveAspectRatio="xMidYMid meet">

<g transform="translate(0.000000,213.000000) scale(0.100000,-0.100000)"
fill="#000000" stroke="none">
<path d="M3094 1856 c-304 -65 -497 -123 -714 -216 -252 -108 -644 -310 -660
-340 -24 -45 2 -110 44 -110 12 0 85 27 162 61 76 33 184 80 239 104 56 23
119 51 140 62 90 45 89 50 25 -124 -31 -87 -60 -171 -64 -188 -13 -56 -78
-250 -116 -345 -21 -52 -48 -143 -60 -201 -21 -96 -21 -110 -9 -149 16 -50 49
-78 102 -87 48 -7 92 12 117 51 11 18 30 77 44 132 25 101 65 259 161 624 29
113 59 245 67 294 l13 89 110 33 c158 49 491 109 522 95 13 -6 46 -11 73 -11
84 0 145 71 138 160 -2 33 -9 48 -31 64 -42 31 -161 32 -303 2z"/>
<path d="M3060 349 c-454 -13 -928 -59 -1170 -113 -126 -28 -264 -80 -268
-100 -5 -21 -14 -22 213 17 372 64 800 97 1284 98 193 0 332 4 343 10 25 14
25 75 -1 89 -11 5 -46 9 -78 8 -32 0 -177 -5 -323 -9z"/>
</g>
</svg>
